<?xml version="1.0"?>
<svg xmlns="http://www.w3.org/2000/svg" xmlns:xlink="http://www.w3.org/1999/xlink" width="512" height="512" viewBox="0 0 128 128"><defs><linearGradient id="a" x1="110.72" y1="110.72" x2="17.28" y2="17.28" gradientUnits="userSpaceOnUse"><stop offset="0" stop-color="#b373f0"/><stop offset="1" stop-color="#01ebcd"/></linearGradient></defs><path d="M109.482,97.5a1.75,1.75,0,0,0-1.75,1.75v7.568a17.648,17.648,0,0,0-10.156-9.07,7.937,7.937,0,1,0-11.576,0,17.652,17.652,0,0,0-10.155,9.07V92.333a1.75,1.75,0,0,0-3.5,0v17.149a1.749,1.749,0,0,0,1.75,1.75h35.387a1.749,1.749,0,0,0,1.75-1.75V99.25A1.749,1.749,0,0,0,109.482,97.5ZM87.351,92.333a4.438,4.438,0,1,1,4.437,4.438A4.441,4.441,0,0,1,87.351,92.333Zm4.437,7.938a14.167,14.167,0,0,1,12.491,7.461H79.3A14.163,14.163,0,0,1,91.788,100.271Zm19.444-7.938V93a1.75,1.75,0,0,1-3.5,0v-.667a1.75,1.75,0,0,1,3.5,0Zm-1.75-19.988H88.09A25.486,25.486,0,0,0,55.655,39.91V18.518a1.749,1.749,0,0,0-1.75-1.75H40.438a1.75,1.75,0,0,0,0,3.5H52.155v21.16a25.587,25.587,0,0,0-5.066,3.509,17.584,17.584,0,0,0-5.1-2.757,7.937,7.937,0,1,0-11.566-.009A17.65,17.65,0,0,0,20.268,51.24V20.268h6.107a1.75,1.75,0,0,0,0-3.5H18.518a1.749,1.749,0,0,0-1.75,1.75V53.905a1.749,1.749,0,0,0,1.75,1.75H36.211a1.75,1.75,0,0,0,0-3.5H23.721a14.161,14.161,0,0,1,20.891-4.691,25.466,25.466,0,0,0-2.076,30.309,1.75,1.75,0,1,0,2.944-1.892,22.009,22.009,0,1,1,4.832,5.344,1.75,1.75,0,0,0-2.179,2.738A25.233,25.233,0,0,0,64,89.5,25.521,25.521,0,0,0,86.572,75.845h21.16v10.28a1.75,1.75,0,0,0,3.5,0V74.1A1.749,1.749,0,0,0,109.482,72.345ZM31.774,36.756a4.438,4.438,0,1,1,4.437,4.437A4.443,4.443,0,0,1,31.774,36.756ZM31.35,18.518a1.75,1.75,0,0,1,1.75-1.75h.713a1.75,1.75,0,0,1,0,3.5H33.1A1.751,1.751,0,0,1,31.35,18.518Zm23.757,53.7L49.226,55.769h3.6l4.164,12.176,4.029-12.176h3.523L58.653,72.22Zm20.345-4.781a1.5,1.5,0,0,0-.342-.993,2.738,2.738,0,0,0-1.195-.712q-.584-.2-2.66-.718a9.017,9.017,0,0,1-3.748-1.628,4.279,4.279,0,0,1-1.515-3.31,4.221,4.221,0,0,1,.713-2.351,4.46,4.46,0,0,1,2.053-1.667A8.241,8.241,0,0,1,72,55.488a6.942,6.942,0,0,1,4.662,1.358A4.789,4.789,0,0,1,78.3,60.471l-3.321.145a2.817,2.817,0,0,0-.915-1.823,3.35,3.35,0,0,0-2.1-.555,3.8,3.8,0,0,0-2.267.594,1.2,1.2,0,0,0-.527,1.022,1.264,1.264,0,0,0,.493,1,8.738,8.738,0,0,0,3.053,1.1A16.053,16.053,0,0,1,76.3,63.136a4.614,4.614,0,0,1,1.818,1.672,5.176,5.176,0,0,1-.129,5.269,4.7,4.7,0,0,1-2.222,1.834,9.3,9.3,0,0,1-3.58.6A7.127,7.127,0,0,1,67.4,71.07a6.271,6.271,0,0,1-2-4.2l3.232-.314a3.941,3.941,0,0,0,1.184,2.39,3.578,3.578,0,0,0,2.407.763,3.7,3.7,0,0,0,2.418-.679A2.016,2.016,0,0,0,75.452,67.439Z" fill="url(#a)"/></svg>
